<svg xmlns="http://www.w3.org/2000/svg" width="360.119" height="49" viewBox="0 0 360.119 49"><g transform="translate(-386.881 -45)"><g transform="translate(186.86 -295.711)"><text transform="translate(406.14 379.711)" fill="#434343" font-size="40" font-family="Montserrat-ExtraBold, Montserrat" font-weight="800"><tspan x="-153.6" y="0">IT</tspan><tspan y="0" fill="#ce5b57">-</tspan><tspan y="0">TALENTS</tspan><tspan y="0" fill="#ce5b57">.</tspan><tspan y="0">PL</tspan></text></g><g transform="translate(333.001 -275.24)"><g transform="translate(53.88 323.24)"><path d="M103.993,344.721a19.06,19.06,0,0,0-.631-4.881l2.424-1.787-4.7-8.152-2.759,1.209a19.014,19.014,0,0,0-8.448-4.881l-.335-2.989h-4.7L83.05,344.721,84.837,366.2h4.7l.335-2.989a18.979,18.979,0,0,0,8.448-4.881l2.759,1.209,4.7-8.152-2.424-1.787a19.061,19.061,0,0,0,.631-4.881Zm0,0" transform="translate(-63.887 -323.24)" fill="#babac0"/><path d="M70.126,323.25l-.335,2.989a18.979,18.979,0,0,0-8.448,4.881l-2.759-1.209-4.7,8.152,2.424,1.787a19.354,19.354,0,0,0-.631,4.881,19.06,19.06,0,0,0,.631,4.881L53.88,351.4l4.7,8.152,2.759-1.209a18.979,18.979,0,0,0,8.448,4.881l.335,2.989h4.7V323.257h-4.7Zm0,0" transform="translate(-53.88 -323.243)" fill="#d8d8d8"/><path d="M84.772,334.14,82.86,348.461l1.912,14.321a14.321,14.321,0,0,0,0-28.642Zm0,0" transform="translate(-63.822 -326.98)" fill="#ecebf0"/><path d="M63.97,348.464a14.321,14.321,0,0,0,14.321,14.321V334.15A14.311,14.311,0,0,0,63.97,348.464Zm0,0" transform="translate(-57.342 -326.983)" fill="#fff"/><path d="M73.127,358.182l-4.7-4.605,4.605-4.7,1.8,1.761-2.844,2.9,2.9,2.844Zm0,0" transform="translate(-58.872 -332.036)" fill="#3f88c5"/><path d="M95.051,358.179l-1.761-1.8,2.9-2.844-2.844-2.9,1.8-1.761,4.605,4.7Zm0,0" transform="translate(-67.401 -332.033)" fill="#3f88c5"/><path d="M88.325,343.119l-2.463-.519-.558,2.654-.893,8.8.893,3.423Zm0,0" transform="translate(-64.354 -329.882)" fill="#ce5b57"/><path d="M83.633,361.513l.558-2.654V346.64L81.17,360.994Zm0,0" transform="translate(-63.242 -331.268)" fill="#ce5b57"/></g></g></g></svg>